/* XPM */
static char * window_xpm[] = {
"24 24 16 1",
" 	c #010011",
".	c #000143",
"+	c #000165",
"@	c #00038F",
"#	c #0300B7",
"$	c #0000D4",
"%	c #0000DF",
"&	c #0306F9",
"*	c #202CFF",
"=	c #3F40FF",
"-	c #5A53FE",
";	c #6C6EFF",
">	c #8186FF",
",	c #A1A1FF",
"'	c #CCCBFF",
")	c #F7F5FE",
"                        ",
" )))))))))))))))))))))) ",
" )    ..++@@@####$%%&&) ",
" )   ..++@@@####$%%&&&) ",
" )  ..++@@@####$%%&&&&) ",
" ) ..++@@@####$%%&&&&*) ",
" )..++@@@####$%%&&&&*=) ",
" ).++@@@####$%%&&&&*==) ",
" )++@@@####$%%&&&&*=--) ",
" )+@@@####$%%&&&&*=--;) ",
" )@@@####$%%&&&&*==-;;) ",
" )@@####$%%&&&&*==-;;>) ",
" )@####$%%&&&&*==-;;>,) ",
" )####$%%&&&&*=--;;>,,) ",
" )###$%%&&&&*=--;;>,,,) ",
" )##$%%&&&&*==-;;>,,,') ",
" )#$%%&&&&*==-;;>,,,'') ",
" )$%%&&&&*=--;;>>,,''') ",
" )%%&&&&*==-;;>,,,''')) ",
" )%&&&&*=--;;>,,,'''))) ",
" )&&&&*==-;;>,,,''')))) ",
" )&&&*==-;;>,,,'''))))) ",
" )))))))))))))))))))))) ",
"                        "};
